%TF.GenerationSoftware,KiCad,Pcbnew,6.99.0-0efc1149af*%
%TF.CreationDate,2023-04-03T21:00:14+02:00*%
%TF.ProjectId,usbarmory-breakout,75736261-726d-46f7-9279-2d627265616b,rev?*%
%TF.SameCoordinates,Original*%
%TF.FileFunction,Copper,L1,Top*%
%TF.FilePolarity,Positive*%
%FSLAX46Y46*%
G04 Gerber Fmt 4.6, Leading zero omitted, Abs format (unit mm)*
G04 Created by KiCad (PCBNEW 6.99.0-0efc1149af) date 2023-04-03 21:00:14*
%MOMM*%
%LPD*%
G01*
G04 APERTURE LIST*
G04 Aperture macros list*
%AMRoundRect*
0 Rectangle with rounded corners*
0 $1 Rounding radius*
0 $2 $3 $4 $5 $6 $7 $8 $9 X,Y pos of 4 corners*
0 Add a 4 corners polygon primitive as box body*
4,1,4,$2,$3,$4,$5,$6,$7,$8,$9,$2,$3,0*
0 Add four circle primitives for the rounded corners*
1,1,$1+$1,$2,$3*
1,1,$1+$1,$4,$5*
1,1,$1+$1,$6,$7*
1,1,$1+$1,$8,$9*
0 Add four rect primitives between the rounded corners*
20,1,$1+$1,$2,$3,$4,$5,0*
20,1,$1+$1,$4,$5,$6,$7,0*
20,1,$1+$1,$6,$7,$8,$9,0*
20,1,$1+$1,$8,$9,$2,$3,0*%
G04 Aperture macros list end*
%TA.AperFunction,ComponentPad*%
%ADD10R,1.700000X1.700000*%
%TD*%
%TA.AperFunction,ComponentPad*%
%ADD11O,1.700000X1.700000*%
%TD*%
%TA.AperFunction,SMDPad,CuDef*%
%ADD12RoundRect,0.200000X-0.275000X0.200000X-0.275000X-0.200000X0.275000X-0.200000X0.275000X0.200000X0*%
%TD*%
%TA.AperFunction,SMDPad,CuDef*%
%ADD13RoundRect,0.200000X0.200000X0.275000X-0.200000X0.275000X-0.200000X-0.275000X0.200000X-0.275000X0*%
%TD*%
%TA.AperFunction,SMDPad,CuDef*%
%ADD14R,1.500000X0.350000*%
%TD*%
%TA.AperFunction,SMDPad,CuDef*%
%ADD15R,1.000000X1.180000*%
%TD*%
%TA.AperFunction,ViaPad*%
%ADD16C,0.800000*%
%TD*%
%TA.AperFunction,Conductor*%
%ADD17C,0.300000*%
%TD*%
G04 APERTURE END LIST*
D10*
%TO.P,J1,1,Pin_1*%
%TO.N,/SDCS*%
X190270999Y-64136999D03*
D11*
%TO.P,J1,2,Pin_2*%
%TO.N,N/C*%
X190270999Y-66676999D03*
%TO.P,J1,3,Pin_3*%
X190270999Y-69216999D03*
%TO.P,J1,4,Pin_4*%
%TO.N,/BLK*%
X190270999Y-71756999D03*
%TO.P,J1,5,Pin_5*%
%TO.N,N/C*%
X190270999Y-74296999D03*
%TO.P,J1,6,Pin_6*%
X190270999Y-76836999D03*
%TO.P,J1,7,Pin_7*%
X190270999Y-79376999D03*
%TO.P,J1,8,Pin_8*%
X190270999Y-81916999D03*
%TO.P,J1,9,Pin_9*%
X190270999Y-84456999D03*
%TO.P,J1,10,Pin_10*%
X190270999Y-86996999D03*
%TO.P,J1,11,Pin_11*%
%TO.N,GND*%
X190270999Y-89536999D03*
%TO.P,J1,12,Pin_12*%
%TO.N,USB_5V*%
X190270999Y-92076999D03*
%TD*%
D12*
%TO.P,R2,1*%
%TO.N,USB_5V*%
X193548000Y-78232000D03*
%TO.P,R2,2*%
%TO.N,Net-(U1-VCONN)*%
X193548000Y-79882000D03*
%TD*%
D13*
%TO.P,R1,1*%
%TO.N,Net-(U1-CC)*%
X194627000Y-81534000D03*
%TO.P,R1,2*%
%TO.N,USB_5V*%
X192977000Y-81534000D03*
%TD*%
D14*
%TO.P,U1,A1,GND*%
%TO.N,GND*%
X196772999Y-83914999D03*
%TO.P,U1,A2,TX1+*%
%TO.N,CS*%
X196772999Y-83414999D03*
%TO.P,U1,A3,TX1-*%
%TO.N,SCLK*%
X196772999Y-82914999D03*
%TO.P,U1,A4,VBUS*%
%TO.N,USB_5V*%
X196772999Y-82414999D03*
%TO.P,U1,A5,CC*%
%TO.N,Net-(U1-CC)*%
X196772999Y-81914999D03*
%TO.P,U1,A6,D+*%
%TO.N,unconnected-(U1-D+)*%
X196772999Y-81414999D03*
%TO.P,U1,A7,D-*%
%TO.N,unconnected-(U1-D-)*%
X196772999Y-80914999D03*
%TO.P,U1,A8,SBU1*%
%TO.N,unconnected-(U1-SBU1)*%
X196772999Y-80414999D03*
%TO.P,U1,A9,VBUS*%
%TO.N,USB_5V*%
X196772999Y-79914999D03*
%TO.P,U1,A10,RX2-*%
%TO.N,RES*%
X196772999Y-79414999D03*
%TO.P,U1,A11,RX2+*%
%TO.N,DC*%
X196772999Y-78914999D03*
%TO.P,U1,A12,GND*%
%TO.N,GND*%
X196772999Y-78414999D03*
D15*
%TO.P,U1,S,S*%
X197022999Y-84854999D03*
X197022999Y-77474999D03*
%TD*%
D16*
%TO.N,CS*%
X192492122Y-83701622D03*
%TO.N,USB_5V*%
X192405000Y-78740000D03*
%TO.N,Net-(U1-VCONN)*%
X194437000Y-80391000D03*
%TD*%
D17*
%TO.N,DC*%
X195326000Y-78695000D02*
X195326000Y-74676000D01*
X194943000Y-74297000D02*
X190271000Y-74297000D01*
X195326000Y-74676000D02*
X194945000Y-74295000D01*
X196596000Y-78915000D02*
X195546000Y-78915000D01*
X195546000Y-78915000D02*
X195326000Y-78695000D01*
X194945000Y-74295000D02*
X194943000Y-74297000D01*
%TO.N,RES*%
X194439000Y-76837000D02*
X190271000Y-76837000D01*
X195409604Y-79415000D02*
X194818000Y-78823396D01*
X194818000Y-78823396D02*
X194818000Y-77216000D01*
X194818000Y-77216000D02*
X194439000Y-76837000D01*
X196596000Y-79415000D02*
X195409604Y-79415000D01*
%TO.N,GND*%
X196846000Y-77475000D02*
X196846000Y-78165000D01*
X196846000Y-84165000D02*
X196596000Y-83915000D01*
X196846000Y-84855000D02*
X196846000Y-84165000D01*
X196846000Y-78165000D02*
X196596000Y-78415000D01*
%TO.N,CS*%
X196596000Y-83415000D02*
X192778744Y-83415000D01*
X192778744Y-83415000D02*
X192492122Y-83701622D01*
%TO.N,USB_5V*%
X194479208Y-79121000D02*
X194183000Y-79121000D01*
X193548000Y-78486000D02*
X194183000Y-79121000D01*
X192405000Y-78740000D02*
X193040000Y-78740000D01*
X193040000Y-78740000D02*
X193548000Y-78232000D01*
X196596000Y-79915000D02*
X195273208Y-79915000D01*
X196596000Y-82415000D02*
X195546000Y-82415000D01*
X195273208Y-79915000D02*
X194479208Y-79121000D01*
X188849000Y-90655000D02*
X190271000Y-92077000D01*
X193548000Y-78232000D02*
X193548000Y-78486000D01*
X195546000Y-82415000D02*
X195538000Y-82423000D01*
X192532000Y-81407000D02*
X191770000Y-80645000D01*
X192659000Y-81534000D02*
X192532000Y-81407000D01*
X192151000Y-79502000D02*
X192151000Y-78994000D01*
X192151000Y-79502000D02*
X192151000Y-81026000D01*
X191770000Y-82296000D02*
X191770000Y-80645000D01*
X192151000Y-81026000D02*
X192532000Y-81407000D01*
X192151000Y-78994000D02*
X192405000Y-78740000D01*
X191897000Y-82423000D02*
X191770000Y-82296000D01*
X191770000Y-80645000D02*
X188849000Y-80645000D01*
X195538000Y-82423000D02*
X191897000Y-82423000D01*
X192977000Y-81534000D02*
X192659000Y-81534000D01*
X188849000Y-80645000D02*
X188849000Y-90655000D01*
%TO.N,SCLK*%
X191770000Y-83185000D02*
X191770000Y-85471000D01*
X192040000Y-82915000D02*
X191770000Y-83185000D01*
X196596000Y-82915000D02*
X192040000Y-82915000D01*
X191516000Y-85725000D02*
X191516000Y-85752000D01*
X191516000Y-85752000D02*
X190271000Y-86997000D01*
X191770000Y-85471000D02*
X191516000Y-85725000D01*
%TO.N,Net-(U1-CC)*%
X195008000Y-81915000D02*
X194627000Y-81534000D01*
X196596000Y-81915000D02*
X195008000Y-81915000D01*
%TO.N,Net-(U1-VCONN)*%
X194057000Y-80391000D02*
X193548000Y-79882000D01*
X194437000Y-80391000D02*
X194057000Y-80391000D01*
%TD*%
%TA.AperFunction,Conductor*%
%TO.N,GND*%
G36*
X197807621Y-61742502D02*
G01*
X197854114Y-61796158D01*
X197865500Y-61848500D01*
X197865500Y-76289086D01*
X197845498Y-76357207D01*
X197791842Y-76403700D01*
X197721568Y-76413804D01*
X197695468Y-76407142D01*
X197639478Y-76386259D01*
X197624257Y-76382662D01*
X197574938Y-76377360D01*
X197568223Y-76377000D01*
X197295115Y-76377000D01*
X197279876Y-76381475D01*
X197278671Y-76382865D01*
X197277000Y-76390548D01*
X197277000Y-77603000D01*
X197256998Y-77671121D01*
X197203342Y-77717614D01*
X197151000Y-77729000D01*
X196966115Y-77729000D01*
X196930498Y-77739458D01*
X196926145Y-77739458D01*
X196946718Y-77784507D01*
X196948000Y-77802438D01*
X196948000Y-78105500D01*
X196927998Y-78173621D01*
X196874342Y-78220114D01*
X196822000Y-78231500D01*
X196724000Y-78231500D01*
X196655879Y-78211498D01*
X196609386Y-78157842D01*
X196598000Y-78105500D01*
X196598000Y-77818000D01*
X196618002Y-77749879D01*
X196671658Y-77703386D01*
X196724000Y-77692000D01*
X196750885Y-77692000D01*
X196786502Y-77681542D01*
X196790855Y-77681542D01*
X196770282Y-77636493D01*
X196769000Y-77618562D01*
X196769000Y-76395115D01*
X196764525Y-76379876D01*
X196763135Y-76378671D01*
X196755452Y-76377000D01*
X196477777Y-76377000D01*
X196471062Y-76377360D01*
X196421743Y-76382662D01*
X196406522Y-76386259D01*
X196285480Y-76431405D01*
X196269824Y-76439954D01*
X196186009Y-76502698D01*
X196119489Y-76527509D01*
X196050115Y-76512418D01*
X195999913Y-76462216D01*
X195984500Y-76401830D01*
X195984500Y-74758056D01*
X195985059Y-74746200D01*
X195985059Y-74746197D01*
X195986788Y-74738463D01*
X195984562Y-74667631D01*
X195984500Y-74663673D01*
X195984500Y-74634568D01*
X195983944Y-74630168D01*
X195983012Y-74618330D01*
X195981811Y-74580094D01*
X195981562Y-74572169D01*
X195975580Y-74551579D01*
X195971570Y-74532216D01*
X195969875Y-74518796D01*
X195969875Y-74518795D01*
X195968882Y-74510936D01*
X195965966Y-74503571D01*
X195965965Y-74503567D01*
X195951874Y-74467979D01*
X195948035Y-74456769D01*
X195935145Y-74412400D01*
X195924229Y-74393943D01*
X195915534Y-74376193D01*
X195907635Y-74356244D01*
X195880477Y-74318864D01*
X195873960Y-74308943D01*
X195863828Y-74291811D01*
X195850452Y-74269193D01*
X195835291Y-74254032D01*
X195822449Y-74238997D01*
X195809841Y-74221643D01*
X195774248Y-74192198D01*
X195765467Y-74184208D01*
X195463066Y-73881806D01*
X195447950Y-73863534D01*
X195447331Y-73862624D01*
X195442874Y-73856065D01*
X195398968Y-73817357D01*
X195393198Y-73811938D01*
X195381333Y-73800073D01*
X195378193Y-73797637D01*
X195368065Y-73789780D01*
X195361971Y-73784739D01*
X195324021Y-73751283D01*
X195318073Y-73746039D01*
X195311009Y-73742440D01*
X195311006Y-73742438D01*
X195310032Y-73741942D01*
X195290008Y-73729235D01*
X195289133Y-73728556D01*
X195282868Y-73723696D01*
X195229123Y-73700438D01*
X195221981Y-73697078D01*
X195169831Y-73670506D01*
X195161020Y-73668537D01*
X195138471Y-73661210D01*
X195130176Y-73657620D01*
X195122350Y-73656381D01*
X195122348Y-73656380D01*
X195072347Y-73648461D01*
X195064581Y-73646980D01*
X195007463Y-73634212D01*
X194999540Y-73634461D01*
X194999539Y-73634461D01*
X194999343Y-73634467D01*
X194998438Y-73634496D01*
X194974763Y-73633006D01*
X194973677Y-73632834D01*
X194965848Y-73631594D01*
X194957956Y-73632340D01*
X194907574Y-73637102D01*
X194899677Y-73637599D01*
X194878043Y-73638279D01*
X194872988Y-73638438D01*
X194869032Y-73638500D01*
X191531704Y-73638500D01*
X191463583Y-73618498D01*
X191426221Y-73581415D01*
X191349573Y-73464095D01*
X191349570Y-73464091D01*
X191346722Y-73459732D01*
X191343197Y-73455903D01*
X191343194Y-73455899D01*
X191197772Y-73297931D01*
X191194240Y-73294094D01*
X191016576Y-73155811D01*
X190983320Y-73137814D01*
X190932929Y-73087801D01*
X190917577Y-73018484D01*
X190942137Y-72951871D01*
X190983320Y-72916186D01*
X191011995Y-72900668D01*
X191016576Y-72898189D01*
X191194240Y-72759906D01*
X191241640Y-72708417D01*
X191343194Y-72598101D01*
X191343197Y-72598097D01*
X191346722Y-72594268D01*
X191469860Y-72405791D01*
X191560296Y-72199616D01*
X191615564Y-71981368D01*
X191634156Y-71757000D01*
X191615564Y-71532632D01*
X191560296Y-71314384D01*
X191469860Y-71108209D01*
X191346722Y-70919732D01*
X191343197Y-70915903D01*
X191343194Y-70915899D01*
X191197772Y-70757931D01*
X191194240Y-70754094D01*
X191016576Y-70615811D01*
X190983320Y-70597814D01*
X190932929Y-70547801D01*
X190917577Y-70478484D01*
X190942137Y-70411871D01*
X190983320Y-70376186D01*
X191011995Y-70360668D01*
X191016576Y-70358189D01*
X191194240Y-70219906D01*
X191241640Y-70168417D01*
X191343194Y-70058101D01*
X191343197Y-70058097D01*
X191346722Y-70054268D01*
X191469860Y-69865791D01*
X191560296Y-69659616D01*
X191615564Y-69441368D01*
X191634156Y-69217000D01*
X191615564Y-68992632D01*
X191560296Y-68774384D01*
X191469860Y-68568209D01*
X191346722Y-68379732D01*
X191343197Y-68375903D01*
X191343194Y-68375899D01*
X191197772Y-68217931D01*
X191194240Y-68214094D01*
X191016576Y-68075811D01*
X190983320Y-68057814D01*
X190932929Y-68007801D01*
X190917577Y-67938484D01*
X190942137Y-67871871D01*
X190983320Y-67836186D01*
X191011995Y-67820668D01*
X191016576Y-67818189D01*
X191194240Y-67679906D01*
X191241640Y-67628417D01*
X191343194Y-67518101D01*
X191343197Y-67518097D01*
X191346722Y-67514268D01*
X191469860Y-67325791D01*
X191560296Y-67119616D01*
X191615564Y-66901368D01*
X191634156Y-66677000D01*
X191615564Y-66452632D01*
X191560296Y-66234384D01*
X191469860Y-66028209D01*
X191346722Y-65839732D01*
X191343197Y-65835903D01*
X191343194Y-65835899D01*
X191203525Y-65684180D01*
X191172104Y-65620515D01*
X191180091Y-65549969D01*
X191224949Y-65494940D01*
X191252191Y-65480787D01*
X191367204Y-65437889D01*
X191484261Y-65350261D01*
X191571889Y-65233204D01*
X191622989Y-65096201D01*
X191629500Y-65035638D01*
X191629500Y-63238362D01*
X191622989Y-63177799D01*
X191571889Y-63040796D01*
X191484261Y-62923739D01*
X191367204Y-62836111D01*
X191230201Y-62785011D01*
X191193295Y-62781043D01*
X191172988Y-62778860D01*
X191172985Y-62778860D01*
X191169638Y-62778500D01*
X189372362Y-62778500D01*
X189369015Y-62778860D01*
X189369012Y-62778860D01*
X189348705Y-62781043D01*
X189311799Y-62785011D01*
X189174796Y-62836111D01*
X189057739Y-62923739D01*
X188970111Y-63040796D01*
X188919011Y-63177799D01*
X188912500Y-63238362D01*
X188912500Y-65035638D01*
X188919011Y-65096201D01*
X188970111Y-65233204D01*
X189057739Y-65350261D01*
X189174796Y-65437889D01*
X189289808Y-65480787D01*
X189346642Y-65523333D01*
X189371453Y-65589853D01*
X189356361Y-65659227D01*
X189338475Y-65684180D01*
X189198806Y-65835899D01*
X189198803Y-65835903D01*
X189195278Y-65839732D01*
X189072140Y-66028209D01*
X188981704Y-66234384D01*
X188926436Y-66452632D01*
X188907844Y-66677000D01*
X188926436Y-66901368D01*
X188981704Y-67119616D01*
X189072140Y-67325791D01*
X189195278Y-67514268D01*
X189198803Y-67518097D01*
X189198806Y-67518101D01*
X189300360Y-67628417D01*
X189347760Y-67679906D01*
X189525424Y-67818189D01*
X189530005Y-67820668D01*
X189558680Y-67836186D01*
X189609071Y-67886199D01*
X189624423Y-67955516D01*
X189599863Y-68022129D01*
X189558681Y-68057813D01*
X189525424Y-68075811D01*
X189347760Y-68214094D01*
X189344228Y-68217931D01*
X189198806Y-68375899D01*
X189198803Y-68375903D01*
X189195278Y-68379732D01*
X189072140Y-68568209D01*
X188981704Y-68774384D01*
X188926436Y-68992632D01*
X188907844Y-69217000D01*
X188926436Y-69441368D01*
X188981704Y-69659616D01*
X189072140Y-69865791D01*
X189195278Y-70054268D01*
X189198803Y-70058097D01*
X189198806Y-70058101D01*
X189300360Y-70168417D01*
X189347760Y-70219906D01*
X189525424Y-70358189D01*
X189530005Y-70360668D01*
X189558680Y-70376186D01*
X189609071Y-70426199D01*
X189624423Y-70495516D01*
X189599863Y-70562129D01*
X189558681Y-70597813D01*
X189525424Y-70615811D01*
X189347760Y-70754094D01*
X189344228Y-70757931D01*
X189198806Y-70915899D01*
X189198803Y-70915903D01*
X189195278Y-70919732D01*
X189072140Y-71108209D01*
X188981704Y-71314384D01*
X188926436Y-71532632D01*
X188907844Y-71757000D01*
X188926436Y-71981368D01*
X188981704Y-72199616D01*
X189072140Y-72405791D01*
X189195278Y-72594268D01*
X189198803Y-72598097D01*
X189198806Y-72598101D01*
X189300360Y-72708417D01*
X189347760Y-72759906D01*
X189525424Y-72898189D01*
X189530005Y-72900668D01*
X189558680Y-72916186D01*
X189609071Y-72966199D01*
X189624423Y-73035516D01*
X189599863Y-73102129D01*
X189558681Y-73137813D01*
X189525424Y-73155811D01*
X189347760Y-73294094D01*
X189344228Y-73297931D01*
X189198806Y-73455899D01*
X189198803Y-73455903D01*
X189195278Y-73459732D01*
X189192428Y-73464095D01*
X189192427Y-73464096D01*
X189078524Y-73638438D01*
X189072140Y-73648209D01*
X189070048Y-73652978D01*
X189070046Y-73652982D01*
X189036897Y-73728556D01*
X188981704Y-73854384D01*
X188980422Y-73859445D01*
X188980422Y-73859446D01*
X188974760Y-73881806D01*
X188926436Y-74072632D01*
X188907844Y-74297000D01*
X188908274Y-74302189D01*
X188925572Y-74510936D01*
X188926436Y-74521368D01*
X188927717Y-74526426D01*
X188927717Y-74526427D01*
X188962473Y-74663673D01*
X188981704Y-74739616D01*
X189072140Y-74945791D01*
X189074990Y-74950153D01*
X189074992Y-74950157D01*
X189126606Y-75029158D01*
X189195278Y-75134268D01*
X189198803Y-75138097D01*
X189198806Y-75138101D01*
X189300360Y-75248417D01*
X189347760Y-75299906D01*
X189525424Y-75438189D01*
X189530005Y-75440668D01*
X189558680Y-75456186D01*
X189609071Y-75506199D01*
X189624423Y-75575516D01*
X189599863Y-75642129D01*
X189558681Y-75677813D01*
X189525424Y-75695811D01*
X189347760Y-75834094D01*
X189344228Y-75837931D01*
X189198806Y-75995899D01*
X189198803Y-75995903D01*
X189195278Y-75999732D01*
X189192428Y-76004095D01*
X189192427Y-76004096D01*
X189079497Y-76176949D01*
X189072140Y-76188209D01*
X189070048Y-76192978D01*
X189070046Y-76192982D01*
X189060033Y-76215810D01*
X188981704Y-76394384D01*
X188980422Y-76399445D01*
X188980422Y-76399446D01*
X188954275Y-76502698D01*
X188926436Y-76612632D01*
X188907844Y-76837000D01*
X188926436Y-77061368D01*
X188981704Y-77279616D01*
X189072140Y-77485791D01*
X189074990Y-77490153D01*
X189074992Y-77490157D01*
X189164448Y-77627079D01*
X189195278Y-77674268D01*
X189198803Y-77678097D01*
X189198806Y-77678101D01*
X189296761Y-77784507D01*
X189347760Y-77839906D01*
X189351879Y-77843112D01*
X189487771Y-77948882D01*
X189525424Y-77978189D01*
X189530005Y-77980668D01*
X189558680Y-77996186D01*
X189609071Y-78046199D01*
X189624423Y-78115516D01*
X189599863Y-78182129D01*
X189558681Y-78217813D01*
X189525424Y-78235811D01*
X189347760Y-78374094D01*
X189344228Y-78377931D01*
X189198806Y-78535899D01*
X189198803Y-78535903D01*
X189195278Y-78539732D01*
X189072140Y-78728209D01*
X188981704Y-78934384D01*
X188926436Y-79152632D01*
X188926006Y-79157823D01*
X188926005Y-79157828D01*
X188909024Y-79362763D01*
X188907844Y-79377000D01*
X188926436Y-79601368D01*
X188981386Y-79818359D01*
X188981704Y-79819616D01*
X188981445Y-79819681D01*
X188984533Y-79888136D01*
X188948880Y-79949531D01*
X188885693Y-79981904D01*
X188870073Y-79983872D01*
X188841609Y-79985663D01*
X188832263Y-79986251D01*
X188824353Y-79986500D01*
X188807568Y-79986500D01*
X188791249Y-79988561D01*
X188790910Y-79988604D01*
X188783034Y-79989348D01*
X188732539Y-79992525D01*
X188732537Y-79992525D01*
X188724629Y-79993023D01*
X188716049Y-79995811D01*
X188692895Y-80000986D01*
X188691797Y-80001125D01*
X188683936Y-80002118D01*
X188676571Y-80005034D01*
X188676567Y-80005035D01*
X188629494Y-80023673D01*
X188622046Y-80026354D01*
X188566396Y-80044436D01*
X188559702Y-80048684D01*
X188559696Y-80048687D01*
X188558768Y-80049276D01*
X188537645Y-80060039D01*
X188529244Y-80063365D01*
X188486469Y-80094443D01*
X188481884Y-80097774D01*
X188475337Y-80102223D01*
X188425920Y-80133584D01*
X188420492Y-80139364D01*
X188420491Y-80139365D01*
X188419732Y-80140173D01*
X188401951Y-80155849D01*
X188394643Y-80161159D01*
X188389589Y-80167268D01*
X188389588Y-80167269D01*
X188357335Y-80206255D01*
X188352104Y-80212189D01*
X188322863Y-80243328D01*
X188312028Y-80254867D01*
X188308212Y-80261809D01*
X188308208Y-80261814D01*
X188307675Y-80262784D01*
X188294348Y-80282395D01*
X188288591Y-80289354D01*
X188285216Y-80296527D01*
X188263669Y-80342315D01*
X188260076Y-80349367D01*
X188231876Y-80400663D01*
X188229905Y-80408341D01*
X188229904Y-80408343D01*
X188229631Y-80409408D01*
X188221597Y-80431722D01*
X188217751Y-80439895D01*
X188216266Y-80447682D01*
X188216265Y-80447684D01*
X188206782Y-80497399D01*
X188205056Y-80505120D01*
X188190500Y-80561812D01*
X188190500Y-80570845D01*
X188188268Y-80594454D01*
X188186576Y-80603324D01*
X188187074Y-80611235D01*
X188190251Y-80661735D01*
X188190500Y-80669647D01*
X188190500Y-90572944D01*
X188189941Y-90584800D01*
X188188212Y-90592537D01*
X188188461Y-90600459D01*
X188190438Y-90663369D01*
X188190500Y-90667327D01*
X188190500Y-90696432D01*
X188191056Y-90700832D01*
X188191988Y-90712664D01*
X188193438Y-90758831D01*
X188195650Y-90766444D01*
X188195650Y-90766445D01*
X188199419Y-90779416D01*
X188203430Y-90798782D01*
X188206118Y-90820064D01*
X188209034Y-90827429D01*
X188209035Y-90827433D01*
X188223126Y-90863021D01*
X188226965Y-90874231D01*
X188239855Y-90918600D01*
X188250775Y-90937065D01*
X188259466Y-90954805D01*
X188267365Y-90974756D01*
X188294516Y-91012126D01*
X188301033Y-91022048D01*
X188320507Y-91054977D01*
X188320510Y-91054981D01*
X188324547Y-91061807D01*
X188339711Y-91076971D01*
X188352551Y-91092004D01*
X188365159Y-91109357D01*
X188400752Y-91138802D01*
X188409532Y-91146792D01*
X188913988Y-91651248D01*
X188948014Y-91713560D01*
X188947038Y-91771273D01*
X188927715Y-91847579D01*
X188927714Y-91847586D01*
X188926436Y-91852632D01*
X188907844Y-92077000D01*
X188926436Y-92301368D01*
X188981704Y-92519616D01*
X189072140Y-92725791D01*
X189195278Y-92914268D01*
X189198803Y-92918097D01*
X189198806Y-92918101D01*
X189300360Y-93028417D01*
X189347760Y-93079906D01*
X189525424Y-93218189D01*
X189723426Y-93325342D01*
X189936365Y-93398444D01*
X189941499Y-93399301D01*
X189941504Y-93399302D01*
X190153294Y-93434643D01*
X190153296Y-93434643D01*
X190158431Y-93435500D01*
X190383569Y-93435500D01*
X190388704Y-93434643D01*
X190388706Y-93434643D01*
X190600496Y-93399302D01*
X190600501Y-93399301D01*
X190605635Y-93398444D01*
X190818574Y-93325342D01*
X191016576Y-93218189D01*
X191194240Y-93079906D01*
X191241640Y-93028417D01*
X191343194Y-92918101D01*
X191343197Y-92918097D01*
X191346722Y-92914268D01*
X191469860Y-92725791D01*
X191560296Y-92519616D01*
X191615564Y-92301368D01*
X191634156Y-92077000D01*
X191615564Y-91852632D01*
X191560296Y-91634384D01*
X191469860Y-91428209D01*
X191346722Y-91239732D01*
X191343197Y-91235903D01*
X191343194Y-91235899D01*
X191197772Y-91077931D01*
X191194240Y-91074094D01*
X191120802Y-91016934D01*
X191020689Y-90939012D01*
X191020687Y-90939010D01*
X191016576Y-90935811D01*
X190982792Y-90917528D01*
X190932403Y-90867515D01*
X190917051Y-90798198D01*
X190941612Y-90731585D01*
X190982794Y-90695901D01*
X191011719Y-90680248D01*
X191020411Y-90674569D01*
X191189789Y-90542737D01*
X191197432Y-90535700D01*
X191342790Y-90377799D01*
X191349177Y-90369593D01*
X191466569Y-90189913D01*
X191471512Y-90180778D01*
X191557730Y-89984223D01*
X191561100Y-89974408D01*
X191603097Y-89808561D01*
X191602567Y-89794470D01*
X191594145Y-89791000D01*
X190143000Y-89791000D01*
X190074879Y-89770998D01*
X190028386Y-89717342D01*
X190017000Y-89665000D01*
X190017000Y-89409000D01*
X190037002Y-89340879D01*
X190090658Y-89294386D01*
X190143000Y-89283000D01*
X191589429Y-89283000D01*
X191602960Y-89279027D01*
X191604256Y-89270014D01*
X191561100Y-89099592D01*
X191557730Y-89089777D01*
X191471512Y-88893222D01*
X191466569Y-88884087D01*
X191349177Y-88704407D01*
X191342790Y-88696201D01*
X191197432Y-88538300D01*
X191189789Y-88531263D01*
X191020411Y-88399431D01*
X191011719Y-88393752D01*
X190982794Y-88378099D01*
X190932403Y-88328086D01*
X190917051Y-88258769D01*
X190941612Y-88192156D01*
X190982792Y-88156472D01*
X191016576Y-88138189D01*
X191194240Y-87999906D01*
X191241640Y-87948417D01*
X191343194Y-87838101D01*
X191343197Y-87838097D01*
X191346722Y-87834268D01*
X191469860Y-87645791D01*
X191560296Y-87439616D01*
X191615564Y-87221368D01*
X191634156Y-86997000D01*
X191615564Y-86772632D01*
X191614286Y-86767586D01*
X191614285Y-86767579D01*
X191594962Y-86691273D01*
X191597630Y-86620327D01*
X191628012Y-86571248D01*
X191923605Y-86275655D01*
X191932385Y-86267665D01*
X191932387Y-86267663D01*
X191939080Y-86263416D01*
X191987605Y-86211742D01*
X191990359Y-86208901D01*
X192010927Y-86188333D01*
X192013647Y-86184826D01*
X192021353Y-86175804D01*
X192047544Y-86147913D01*
X192052972Y-86142133D01*
X192056794Y-86135181D01*
X192063303Y-86123342D01*
X192074157Y-86106818D01*
X192082443Y-86096136D01*
X192082446Y-86096130D01*
X192087304Y-86089868D01*
X192087714Y-86088920D01*
X192102846Y-86069414D01*
X192177601Y-85994659D01*
X192186379Y-85986671D01*
X192186389Y-85986662D01*
X192193080Y-85982416D01*
X192241620Y-85930726D01*
X192244374Y-85927885D01*
X192264926Y-85907333D01*
X192267638Y-85903837D01*
X192275349Y-85894808D01*
X192301544Y-85866913D01*
X192306972Y-85861133D01*
X192317301Y-85842345D01*
X192328158Y-85825816D01*
X192336444Y-85815134D01*
X192341304Y-85808869D01*
X192359659Y-85766455D01*
X192364873Y-85755812D01*
X192383304Y-85722286D01*
X192383304Y-85722285D01*
X192387124Y-85715337D01*
X192389095Y-85707660D01*
X192389097Y-85707655D01*
X192392455Y-85694574D01*
X192398861Y-85675862D01*
X192404233Y-85663448D01*
X192407380Y-85656177D01*
X192414608Y-85610541D01*
X192417012Y-85598930D01*
X192428500Y-85554188D01*
X192428500Y-85532742D01*
X192430051Y-85513032D01*
X192432166Y-85499678D01*
X192433406Y-85491849D01*
X192433252Y-85490223D01*
X196015000Y-85490223D01*
X196015360Y-85496938D01*
X196020662Y-85546257D01*
X196024259Y-85561478D01*
X196069405Y-85682520D01*
X196077954Y-85698176D01*
X196154698Y-85800693D01*
X196167307Y-85813302D01*
X196269824Y-85890046D01*
X196285480Y-85898595D01*
X196406522Y-85943741D01*
X196421743Y-85947338D01*
X196471062Y-85952640D01*
X196477777Y-85953000D01*
X196750885Y-85953000D01*
X196766124Y-85948525D01*
X196767329Y-85947135D01*
X196769000Y-85939452D01*
X196769000Y-85127115D01*
X196764525Y-85111876D01*
X196763135Y-85110671D01*
X196755452Y-85109000D01*
X196033115Y-85109000D01*
X196017876Y-85113475D01*
X196016671Y-85114865D01*
X196015000Y-85122548D01*
X196015000Y-85490223D01*
X192433252Y-85490223D01*
X192429059Y-85445860D01*
X192428500Y-85434005D01*
X192428500Y-84736122D01*
X192448502Y-84668001D01*
X192502158Y-84621508D01*
X192554500Y-84610122D01*
X192587609Y-84610122D01*
X192594061Y-84608750D01*
X192594066Y-84608750D01*
X192694262Y-84587452D01*
X192774410Y-84570416D01*
X192780441Y-84567731D01*
X192942844Y-84495425D01*
X192942846Y-84495424D01*
X192948874Y-84492740D01*
X193103375Y-84380488D01*
X193231162Y-84238566D01*
X193278613Y-84156379D01*
X193290090Y-84136500D01*
X193341473Y-84087507D01*
X193399209Y-84073500D01*
X195394823Y-84073500D01*
X195462944Y-84093502D01*
X195509437Y-84147158D01*
X195520101Y-84186035D01*
X195520662Y-84191256D01*
X195524259Y-84206478D01*
X195569405Y-84327520D01*
X195577954Y-84343176D01*
X195654698Y-84445693D01*
X195667307Y-84458302D01*
X195769824Y-84535046D01*
X195785480Y-84543595D01*
X195906522Y-84588741D01*
X195921743Y-84592338D01*
X195971062Y-84597640D01*
X195977777Y-84598000D01*
X196001209Y-84598000D01*
X196027992Y-84600879D01*
X196028548Y-84601000D01*
X196579885Y-84601000D01*
X196595124Y-84596525D01*
X196596329Y-84595135D01*
X196598000Y-84587452D01*
X196598000Y-84224500D01*
X196618002Y-84156379D01*
X196671658Y-84109886D01*
X196724000Y-84098500D01*
X196822000Y-84098500D01*
X196890121Y-84118502D01*
X196936614Y-84172158D01*
X196948000Y-84224500D01*
X196948000Y-84582885D01*
X196952475Y-84598124D01*
X196953865Y-84599329D01*
X196961548Y-84601000D01*
X197151000Y-84601000D01*
X197219121Y-84621002D01*
X197265614Y-84674658D01*
X197277000Y-84727000D01*
X197277000Y-85934885D01*
X197281475Y-85950124D01*
X197282865Y-85951329D01*
X197290548Y-85953000D01*
X197568223Y-85953000D01*
X197574938Y-85952640D01*
X197624257Y-85947338D01*
X197639478Y-85943741D01*
X197695468Y-85922858D01*
X197766284Y-85917794D01*
X197828596Y-85951819D01*
X197862621Y-86014131D01*
X197865500Y-86040914D01*
X197865500Y-94361500D01*
X197845498Y-94429621D01*
X197791842Y-94476114D01*
X197739500Y-94487500D01*
X187705500Y-94487500D01*
X187637379Y-94467498D01*
X187590886Y-94413842D01*
X187579500Y-94361500D01*
X187579500Y-61848500D01*
X187599502Y-61780379D01*
X187653158Y-61733886D01*
X187705500Y-61722500D01*
X197739500Y-61722500D01*
X197807621Y-61742502D01*
G37*
%TD.AperFunction*%
%TD*%
M02*
