%TF.GenerationSoftware,KiCad,Pcbnew,6.99.0-0efc1149af*%
%TF.CreationDate,2023-04-03T21:00:14+02:00*%
%TF.ProjectId,usbarmory-breakout,75736261-726d-46f7-9279-2d627265616b,rev?*%
%TF.SameCoordinates,Original*%
%TF.FileFunction,Legend,Top*%
%TF.FilePolarity,Positive*%
%FSLAX46Y46*%
G04 Gerber Fmt 4.6, Leading zero omitted, Abs format (unit mm)*
G04 Created by KiCad (PCBNEW 6.99.0-0efc1149af) date 2023-04-03 21:00:14*
%MOMM*%
%LPD*%
G01*
G04 APERTURE LIST*
%ADD10C,0.175000*%
%ADD11C,0.125000*%
%ADD12C,0.120000*%
%ADD13C,0.100000*%
G04 APERTURE END LIST*
D10*
X193606666Y-77317666D02*
X193373333Y-76984333D01*
X193206666Y-77317666D02*
X193206666Y-76617666D01*
X193206666Y-76617666D02*
X193473333Y-76617666D01*
X193473333Y-76617666D02*
X193540000Y-76651000D01*
X193540000Y-76651000D02*
X193573333Y-76684333D01*
X193573333Y-76684333D02*
X193606666Y-76751000D01*
X193606666Y-76751000D02*
X193606666Y-76851000D01*
X193606666Y-76851000D02*
X193573333Y-76917666D01*
X193573333Y-76917666D02*
X193540000Y-76951000D01*
X193540000Y-76951000D02*
X193473333Y-76984333D01*
X193473333Y-76984333D02*
X193206666Y-76984333D01*
X193873333Y-76684333D02*
X193906666Y-76651000D01*
X193906666Y-76651000D02*
X193973333Y-76617666D01*
X193973333Y-76617666D02*
X194140000Y-76617666D01*
X194140000Y-76617666D02*
X194206666Y-76651000D01*
X194206666Y-76651000D02*
X194240000Y-76684333D01*
X194240000Y-76684333D02*
X194273333Y-76751000D01*
X194273333Y-76751000D02*
X194273333Y-76817666D01*
X194273333Y-76817666D02*
X194240000Y-76917666D01*
X194240000Y-76917666D02*
X193840000Y-77317666D01*
X193840000Y-77317666D02*
X194273333Y-77317666D01*
X193733666Y-83159666D02*
X193500333Y-82826333D01*
X193333666Y-83159666D02*
X193333666Y-82459666D01*
X193333666Y-82459666D02*
X193600333Y-82459666D01*
X193600333Y-82459666D02*
X193667000Y-82493000D01*
X193667000Y-82493000D02*
X193700333Y-82526333D01*
X193700333Y-82526333D02*
X193733666Y-82593000D01*
X193733666Y-82593000D02*
X193733666Y-82693000D01*
X193733666Y-82693000D02*
X193700333Y-82759666D01*
X193700333Y-82759666D02*
X193667000Y-82793000D01*
X193667000Y-82793000D02*
X193600333Y-82826333D01*
X193600333Y-82826333D02*
X193333666Y-82826333D01*
X194400333Y-83159666D02*
X194000333Y-83159666D01*
X194200333Y-83159666D02*
X194200333Y-82459666D01*
X194200333Y-82459666D02*
X194133666Y-82559666D01*
X194133666Y-82559666D02*
X194067000Y-82626333D01*
X194067000Y-82626333D02*
X194000333Y-82659666D01*
X196198666Y-93686333D02*
X195498666Y-93686333D01*
X195498666Y-93686333D02*
X195498666Y-93519666D01*
X195498666Y-93519666D02*
X195532000Y-93419666D01*
X195532000Y-93419666D02*
X195598666Y-93353000D01*
X195598666Y-93353000D02*
X195665333Y-93319666D01*
X195665333Y-93319666D02*
X195798666Y-93286333D01*
X195798666Y-93286333D02*
X195898666Y-93286333D01*
X195898666Y-93286333D02*
X196032000Y-93319666D01*
X196032000Y-93319666D02*
X196098666Y-93353000D01*
X196098666Y-93353000D02*
X196165333Y-93419666D01*
X196165333Y-93419666D02*
X196198666Y-93519666D01*
X196198666Y-93519666D02*
X196198666Y-93686333D01*
X195832000Y-92753000D02*
X195832000Y-92986333D01*
X196198666Y-92986333D02*
X195498666Y-92986333D01*
X195498666Y-92986333D02*
X195498666Y-92653000D01*
X196198666Y-91986333D02*
X195865333Y-92219666D01*
X196198666Y-92386333D02*
X195498666Y-92386333D01*
X195498666Y-92386333D02*
X195498666Y-92119666D01*
X195498666Y-92119666D02*
X195532000Y-92053000D01*
X195532000Y-92053000D02*
X195565333Y-92019666D01*
X195565333Y-92019666D02*
X195632000Y-91986333D01*
X195632000Y-91986333D02*
X195732000Y-91986333D01*
X195732000Y-91986333D02*
X195798666Y-92019666D01*
X195798666Y-92019666D02*
X195832000Y-92053000D01*
X195832000Y-92053000D02*
X195865333Y-92119666D01*
X195865333Y-92119666D02*
X195865333Y-92386333D01*
X195932000Y-91686333D02*
X195932000Y-91153000D01*
X195498666Y-90686333D02*
X195498666Y-90619666D01*
X195498666Y-90619666D02*
X195532000Y-90552999D01*
X195532000Y-90552999D02*
X195565333Y-90519666D01*
X195565333Y-90519666D02*
X195632000Y-90486333D01*
X195632000Y-90486333D02*
X195765333Y-90452999D01*
X195765333Y-90452999D02*
X195932000Y-90452999D01*
X195932000Y-90452999D02*
X196065333Y-90486333D01*
X196065333Y-90486333D02*
X196132000Y-90519666D01*
X196132000Y-90519666D02*
X196165333Y-90552999D01*
X196165333Y-90552999D02*
X196198666Y-90619666D01*
X196198666Y-90619666D02*
X196198666Y-90686333D01*
X196198666Y-90686333D02*
X196165333Y-90752999D01*
X196165333Y-90752999D02*
X196132000Y-90786333D01*
X196132000Y-90786333D02*
X196065333Y-90819666D01*
X196065333Y-90819666D02*
X195932000Y-90852999D01*
X195932000Y-90852999D02*
X195765333Y-90852999D01*
X195765333Y-90852999D02*
X195632000Y-90819666D01*
X195632000Y-90819666D02*
X195565333Y-90786333D01*
X195565333Y-90786333D02*
X195532000Y-90752999D01*
X195532000Y-90752999D02*
X195498666Y-90686333D01*
X195498666Y-89852999D02*
X195498666Y-89986332D01*
X195498666Y-89986332D02*
X195532000Y-90052999D01*
X195532000Y-90052999D02*
X195565333Y-90086332D01*
X195565333Y-90086332D02*
X195665333Y-90152999D01*
X195665333Y-90152999D02*
X195798666Y-90186332D01*
X195798666Y-90186332D02*
X196065333Y-90186332D01*
X196065333Y-90186332D02*
X196132000Y-90152999D01*
X196132000Y-90152999D02*
X196165333Y-90119666D01*
X196165333Y-90119666D02*
X196198666Y-90052999D01*
X196198666Y-90052999D02*
X196198666Y-89919666D01*
X196198666Y-89919666D02*
X196165333Y-89852999D01*
X196165333Y-89852999D02*
X196132000Y-89819666D01*
X196132000Y-89819666D02*
X196065333Y-89786332D01*
X196065333Y-89786332D02*
X195898666Y-89786332D01*
X195898666Y-89786332D02*
X195832000Y-89819666D01*
X195832000Y-89819666D02*
X195798666Y-89852999D01*
X195798666Y-89852999D02*
X195765333Y-89919666D01*
X195765333Y-89919666D02*
X195765333Y-90052999D01*
X195765333Y-90052999D02*
X195798666Y-90119666D01*
X195798666Y-90119666D02*
X195832000Y-90152999D01*
X195832000Y-90152999D02*
X195898666Y-90186332D01*
X195498666Y-89186332D02*
X195498666Y-89319665D01*
X195498666Y-89319665D02*
X195532000Y-89386332D01*
X195532000Y-89386332D02*
X195565333Y-89419665D01*
X195565333Y-89419665D02*
X195665333Y-89486332D01*
X195665333Y-89486332D02*
X195798666Y-89519665D01*
X195798666Y-89519665D02*
X196065333Y-89519665D01*
X196065333Y-89519665D02*
X196132000Y-89486332D01*
X196132000Y-89486332D02*
X196165333Y-89452999D01*
X196165333Y-89452999D02*
X196198666Y-89386332D01*
X196198666Y-89386332D02*
X196198666Y-89252999D01*
X196198666Y-89252999D02*
X196165333Y-89186332D01*
X196165333Y-89186332D02*
X196132000Y-89152999D01*
X196132000Y-89152999D02*
X196065333Y-89119665D01*
X196065333Y-89119665D02*
X195898666Y-89119665D01*
X195898666Y-89119665D02*
X195832000Y-89152999D01*
X195832000Y-89152999D02*
X195798666Y-89186332D01*
X195798666Y-89186332D02*
X195765333Y-89252999D01*
X195765333Y-89252999D02*
X195765333Y-89386332D01*
X195765333Y-89386332D02*
X195798666Y-89452999D01*
X195798666Y-89452999D02*
X195832000Y-89486332D01*
X195832000Y-89486332D02*
X195898666Y-89519665D01*
X195498666Y-88486332D02*
X195498666Y-88819665D01*
X195498666Y-88819665D02*
X195832000Y-88852998D01*
X195832000Y-88852998D02*
X195798666Y-88819665D01*
X195798666Y-88819665D02*
X195765333Y-88752998D01*
X195765333Y-88752998D02*
X195765333Y-88586332D01*
X195765333Y-88586332D02*
X195798666Y-88519665D01*
X195798666Y-88519665D02*
X195832000Y-88486332D01*
X195832000Y-88486332D02*
X195898666Y-88452998D01*
X195898666Y-88452998D02*
X196065333Y-88452998D01*
X196065333Y-88452998D02*
X196132000Y-88486332D01*
X196132000Y-88486332D02*
X196165333Y-88519665D01*
X196165333Y-88519665D02*
X196198666Y-88586332D01*
X196198666Y-88586332D02*
X196198666Y-88752998D01*
X196198666Y-88752998D02*
X196165333Y-88819665D01*
X196165333Y-88819665D02*
X196132000Y-88852998D01*
X197332666Y-93686333D02*
X196632666Y-93686333D01*
X197332666Y-93386333D02*
X196966000Y-93386333D01*
X196966000Y-93386333D02*
X196899333Y-93419666D01*
X196899333Y-93419666D02*
X196866000Y-93486333D01*
X196866000Y-93486333D02*
X196866000Y-93586333D01*
X196866000Y-93586333D02*
X196899333Y-93653000D01*
X196899333Y-93653000D02*
X196932666Y-93686333D01*
X197299333Y-92786333D02*
X197332666Y-92853000D01*
X197332666Y-92853000D02*
X197332666Y-92986333D01*
X197332666Y-92986333D02*
X197299333Y-93053000D01*
X197299333Y-93053000D02*
X197232666Y-93086333D01*
X197232666Y-93086333D02*
X196966000Y-93086333D01*
X196966000Y-93086333D02*
X196899333Y-93053000D01*
X196899333Y-93053000D02*
X196866000Y-92986333D01*
X196866000Y-92986333D02*
X196866000Y-92853000D01*
X196866000Y-92853000D02*
X196899333Y-92786333D01*
X196899333Y-92786333D02*
X196966000Y-92753000D01*
X196966000Y-92753000D02*
X197032666Y-92753000D01*
X197032666Y-92753000D02*
X197099333Y-93086333D01*
X197332666Y-92153000D02*
X196966000Y-92153000D01*
X196966000Y-92153000D02*
X196899333Y-92186333D01*
X196899333Y-92186333D02*
X196866000Y-92253000D01*
X196866000Y-92253000D02*
X196866000Y-92386333D01*
X196866000Y-92386333D02*
X196899333Y-92453000D01*
X197299333Y-92153000D02*
X197332666Y-92219667D01*
X197332666Y-92219667D02*
X197332666Y-92386333D01*
X197332666Y-92386333D02*
X197299333Y-92453000D01*
X197299333Y-92453000D02*
X197232666Y-92486333D01*
X197232666Y-92486333D02*
X197166000Y-92486333D01*
X197166000Y-92486333D02*
X197099333Y-92453000D01*
X197099333Y-92453000D02*
X197066000Y-92386333D01*
X197066000Y-92386333D02*
X197066000Y-92219667D01*
X197066000Y-92219667D02*
X197032666Y-92153000D01*
X197332666Y-91519667D02*
X196632666Y-91519667D01*
X197299333Y-91519667D02*
X197332666Y-91586334D01*
X197332666Y-91586334D02*
X197332666Y-91719667D01*
X197332666Y-91719667D02*
X197299333Y-91786334D01*
X197299333Y-91786334D02*
X197266000Y-91819667D01*
X197266000Y-91819667D02*
X197199333Y-91853000D01*
X197199333Y-91853000D02*
X196999333Y-91853000D01*
X196999333Y-91853000D02*
X196932666Y-91819667D01*
X196932666Y-91819667D02*
X196899333Y-91786334D01*
X196899333Y-91786334D02*
X196866000Y-91719667D01*
X196866000Y-91719667D02*
X196866000Y-91586334D01*
X196866000Y-91586334D02*
X196899333Y-91519667D01*
X197299333Y-90919667D02*
X197332666Y-90986334D01*
X197332666Y-90986334D02*
X197332666Y-91119667D01*
X197332666Y-91119667D02*
X197299333Y-91186334D01*
X197299333Y-91186334D02*
X197232666Y-91219667D01*
X197232666Y-91219667D02*
X196966000Y-91219667D01*
X196966000Y-91219667D02*
X196899333Y-91186334D01*
X196899333Y-91186334D02*
X196866000Y-91119667D01*
X196866000Y-91119667D02*
X196866000Y-90986334D01*
X196866000Y-90986334D02*
X196899333Y-90919667D01*
X196899333Y-90919667D02*
X196966000Y-90886334D01*
X196966000Y-90886334D02*
X197032666Y-90886334D01*
X197032666Y-90886334D02*
X197099333Y-91219667D01*
X197332666Y-90586334D02*
X196866000Y-90586334D01*
X196999333Y-90586334D02*
X196932666Y-90553001D01*
X196932666Y-90553001D02*
X196899333Y-90519667D01*
X196899333Y-90519667D02*
X196866000Y-90453001D01*
X196866000Y-90453001D02*
X196866000Y-90386334D01*
X195371666Y-74382333D02*
X195938333Y-74382333D01*
X195938333Y-74382333D02*
X196005000Y-74349000D01*
X196005000Y-74349000D02*
X196038333Y-74315666D01*
X196038333Y-74315666D02*
X196071666Y-74249000D01*
X196071666Y-74249000D02*
X196071666Y-74115666D01*
X196071666Y-74115666D02*
X196038333Y-74049000D01*
X196038333Y-74049000D02*
X196005000Y-74015666D01*
X196005000Y-74015666D02*
X195938333Y-73982333D01*
X195938333Y-73982333D02*
X195371666Y-73982333D01*
X196038333Y-73682333D02*
X196071666Y-73582333D01*
X196071666Y-73582333D02*
X196071666Y-73415667D01*
X196071666Y-73415667D02*
X196038333Y-73349000D01*
X196038333Y-73349000D02*
X196005000Y-73315667D01*
X196005000Y-73315667D02*
X195938333Y-73282333D01*
X195938333Y-73282333D02*
X195871666Y-73282333D01*
X195871666Y-73282333D02*
X195805000Y-73315667D01*
X195805000Y-73315667D02*
X195771666Y-73349000D01*
X195771666Y-73349000D02*
X195738333Y-73415667D01*
X195738333Y-73415667D02*
X195705000Y-73549000D01*
X195705000Y-73549000D02*
X195671666Y-73615667D01*
X195671666Y-73615667D02*
X195638333Y-73649000D01*
X195638333Y-73649000D02*
X195571666Y-73682333D01*
X195571666Y-73682333D02*
X195505000Y-73682333D01*
X195505000Y-73682333D02*
X195438333Y-73649000D01*
X195438333Y-73649000D02*
X195405000Y-73615667D01*
X195405000Y-73615667D02*
X195371666Y-73549000D01*
X195371666Y-73549000D02*
X195371666Y-73382333D01*
X195371666Y-73382333D02*
X195405000Y-73282333D01*
X195705000Y-72749000D02*
X195738333Y-72649000D01*
X195738333Y-72649000D02*
X195771666Y-72615666D01*
X195771666Y-72615666D02*
X195838333Y-72582333D01*
X195838333Y-72582333D02*
X195938333Y-72582333D01*
X195938333Y-72582333D02*
X196005000Y-72615666D01*
X196005000Y-72615666D02*
X196038333Y-72649000D01*
X196038333Y-72649000D02*
X196071666Y-72715666D01*
X196071666Y-72715666D02*
X196071666Y-72982333D01*
X196071666Y-72982333D02*
X195371666Y-72982333D01*
X195371666Y-72982333D02*
X195371666Y-72749000D01*
X195371666Y-72749000D02*
X195405000Y-72682333D01*
X195405000Y-72682333D02*
X195438333Y-72649000D01*
X195438333Y-72649000D02*
X195505000Y-72615666D01*
X195505000Y-72615666D02*
X195571666Y-72615666D01*
X195571666Y-72615666D02*
X195638333Y-72649000D01*
X195638333Y-72649000D02*
X195671666Y-72682333D01*
X195671666Y-72682333D02*
X195705000Y-72749000D01*
X195705000Y-72749000D02*
X195705000Y-72982333D01*
X195871666Y-71895666D02*
X195871666Y-71562333D01*
X196071666Y-71962333D02*
X195371666Y-71729000D01*
X195371666Y-71729000D02*
X196071666Y-71495666D01*
X196071666Y-71262333D02*
X195605000Y-71262333D01*
X195738333Y-71262333D02*
X195671666Y-71229000D01*
X195671666Y-71229000D02*
X195638333Y-71195666D01*
X195638333Y-71195666D02*
X195605000Y-71129000D01*
X195605000Y-71129000D02*
X195605000Y-71062333D01*
X196071666Y-70829000D02*
X195605000Y-70829000D01*
X195671666Y-70829000D02*
X195638333Y-70795667D01*
X195638333Y-70795667D02*
X195605000Y-70729000D01*
X195605000Y-70729000D02*
X195605000Y-70629000D01*
X195605000Y-70629000D02*
X195638333Y-70562333D01*
X195638333Y-70562333D02*
X195705000Y-70529000D01*
X195705000Y-70529000D02*
X196071666Y-70529000D01*
X195705000Y-70529000D02*
X195638333Y-70495667D01*
X195638333Y-70495667D02*
X195605000Y-70429000D01*
X195605000Y-70429000D02*
X195605000Y-70329000D01*
X195605000Y-70329000D02*
X195638333Y-70262333D01*
X195638333Y-70262333D02*
X195705000Y-70229000D01*
X195705000Y-70229000D02*
X196071666Y-70229000D01*
X196071666Y-69795667D02*
X196038333Y-69862334D01*
X196038333Y-69862334D02*
X196005000Y-69895667D01*
X196005000Y-69895667D02*
X195938333Y-69929000D01*
X195938333Y-69929000D02*
X195738333Y-69929000D01*
X195738333Y-69929000D02*
X195671666Y-69895667D01*
X195671666Y-69895667D02*
X195638333Y-69862334D01*
X195638333Y-69862334D02*
X195605000Y-69795667D01*
X195605000Y-69795667D02*
X195605000Y-69695667D01*
X195605000Y-69695667D02*
X195638333Y-69629000D01*
X195638333Y-69629000D02*
X195671666Y-69595667D01*
X195671666Y-69595667D02*
X195738333Y-69562334D01*
X195738333Y-69562334D02*
X195938333Y-69562334D01*
X195938333Y-69562334D02*
X196005000Y-69595667D01*
X196005000Y-69595667D02*
X196038333Y-69629000D01*
X196038333Y-69629000D02*
X196071666Y-69695667D01*
X196071666Y-69695667D02*
X196071666Y-69795667D01*
X196071666Y-69262334D02*
X195605000Y-69262334D01*
X195738333Y-69262334D02*
X195671666Y-69229001D01*
X195671666Y-69229001D02*
X195638333Y-69195667D01*
X195638333Y-69195667D02*
X195605000Y-69129001D01*
X195605000Y-69129001D02*
X195605000Y-69062334D01*
X195605000Y-68895668D02*
X196071666Y-68729001D01*
X195605000Y-68562334D02*
X196071666Y-68729001D01*
X196071666Y-68729001D02*
X196238333Y-68795668D01*
X196238333Y-68795668D02*
X196271666Y-68829001D01*
X196271666Y-68829001D02*
X196305000Y-68895668D01*
X196071666Y-67875668D02*
X195371666Y-67875668D01*
X195371666Y-67875668D02*
X195871666Y-67642335D01*
X195871666Y-67642335D02*
X195371666Y-67409001D01*
X195371666Y-67409001D02*
X196071666Y-67409001D01*
X196071666Y-67075668D02*
X195371666Y-67075668D01*
X195805000Y-67009001D02*
X196071666Y-66809001D01*
X195605000Y-66809001D02*
X195871666Y-67075668D01*
X195438333Y-66542334D02*
X195405000Y-66509001D01*
X195405000Y-66509001D02*
X195371666Y-66442334D01*
X195371666Y-66442334D02*
X195371666Y-66275668D01*
X195371666Y-66275668D02*
X195405000Y-66209001D01*
X195405000Y-66209001D02*
X195438333Y-66175668D01*
X195438333Y-66175668D02*
X195505000Y-66142334D01*
X195505000Y-66142334D02*
X195571666Y-66142334D01*
X195571666Y-66142334D02*
X195671666Y-66175668D01*
X195671666Y-66175668D02*
X196071666Y-66575668D01*
X196071666Y-66575668D02*
X196071666Y-66142334D01*
X197205666Y-74382333D02*
X196505666Y-74382333D01*
X196505666Y-74382333D02*
X196505666Y-74215666D01*
X196505666Y-74215666D02*
X196539000Y-74115666D01*
X196539000Y-74115666D02*
X196605666Y-74049000D01*
X196605666Y-74049000D02*
X196672333Y-74015666D01*
X196672333Y-74015666D02*
X196805666Y-73982333D01*
X196805666Y-73982333D02*
X196905666Y-73982333D01*
X196905666Y-73982333D02*
X197039000Y-74015666D01*
X197039000Y-74015666D02*
X197105666Y-74049000D01*
X197105666Y-74049000D02*
X197172333Y-74115666D01*
X197172333Y-74115666D02*
X197205666Y-74215666D01*
X197205666Y-74215666D02*
X197205666Y-74382333D01*
X197205666Y-73682333D02*
X196739000Y-73682333D01*
X196505666Y-73682333D02*
X196539000Y-73715666D01*
X196539000Y-73715666D02*
X196572333Y-73682333D01*
X196572333Y-73682333D02*
X196539000Y-73649000D01*
X196539000Y-73649000D02*
X196505666Y-73682333D01*
X196505666Y-73682333D02*
X196572333Y-73682333D01*
X197172333Y-73382333D02*
X197205666Y-73315667D01*
X197205666Y-73315667D02*
X197205666Y-73182333D01*
X197205666Y-73182333D02*
X197172333Y-73115667D01*
X197172333Y-73115667D02*
X197105666Y-73082333D01*
X197105666Y-73082333D02*
X197072333Y-73082333D01*
X197072333Y-73082333D02*
X197005666Y-73115667D01*
X197005666Y-73115667D02*
X196972333Y-73182333D01*
X196972333Y-73182333D02*
X196972333Y-73282333D01*
X196972333Y-73282333D02*
X196939000Y-73349000D01*
X196939000Y-73349000D02*
X196872333Y-73382333D01*
X196872333Y-73382333D02*
X196839000Y-73382333D01*
X196839000Y-73382333D02*
X196772333Y-73349000D01*
X196772333Y-73349000D02*
X196739000Y-73282333D01*
X196739000Y-73282333D02*
X196739000Y-73182333D01*
X196739000Y-73182333D02*
X196772333Y-73115667D01*
X196739000Y-72782333D02*
X197439000Y-72782333D01*
X196772333Y-72782333D02*
X196739000Y-72715666D01*
X196739000Y-72715666D02*
X196739000Y-72582333D01*
X196739000Y-72582333D02*
X196772333Y-72515666D01*
X196772333Y-72515666D02*
X196805666Y-72482333D01*
X196805666Y-72482333D02*
X196872333Y-72449000D01*
X196872333Y-72449000D02*
X197072333Y-72449000D01*
X197072333Y-72449000D02*
X197139000Y-72482333D01*
X197139000Y-72482333D02*
X197172333Y-72515666D01*
X197172333Y-72515666D02*
X197205666Y-72582333D01*
X197205666Y-72582333D02*
X197205666Y-72715666D01*
X197205666Y-72715666D02*
X197172333Y-72782333D01*
X197205666Y-72049000D02*
X197172333Y-72115667D01*
X197172333Y-72115667D02*
X197105666Y-72149000D01*
X197105666Y-72149000D02*
X196505666Y-72149000D01*
X197205666Y-71482333D02*
X196839000Y-71482333D01*
X196839000Y-71482333D02*
X196772333Y-71515666D01*
X196772333Y-71515666D02*
X196739000Y-71582333D01*
X196739000Y-71582333D02*
X196739000Y-71715666D01*
X196739000Y-71715666D02*
X196772333Y-71782333D01*
X197172333Y-71482333D02*
X197205666Y-71549000D01*
X197205666Y-71549000D02*
X197205666Y-71715666D01*
X197205666Y-71715666D02*
X197172333Y-71782333D01*
X197172333Y-71782333D02*
X197105666Y-71815666D01*
X197105666Y-71815666D02*
X197039000Y-71815666D01*
X197039000Y-71815666D02*
X196972333Y-71782333D01*
X196972333Y-71782333D02*
X196939000Y-71715666D01*
X196939000Y-71715666D02*
X196939000Y-71549000D01*
X196939000Y-71549000D02*
X196905666Y-71482333D01*
X196739000Y-71215667D02*
X197205666Y-71049000D01*
X196739000Y-70882333D02*
X197205666Y-71049000D01*
X197205666Y-71049000D02*
X197372333Y-71115667D01*
X197372333Y-71115667D02*
X197405666Y-71149000D01*
X197405666Y-71149000D02*
X197439000Y-71215667D01*
X197005666Y-70229000D02*
X197005666Y-69895667D01*
X197205666Y-70295667D02*
X196505666Y-70062334D01*
X196505666Y-70062334D02*
X197205666Y-69829000D01*
X197205666Y-69295667D02*
X196505666Y-69295667D01*
X197172333Y-69295667D02*
X197205666Y-69362334D01*
X197205666Y-69362334D02*
X197205666Y-69495667D01*
X197205666Y-69495667D02*
X197172333Y-69562334D01*
X197172333Y-69562334D02*
X197139000Y-69595667D01*
X197139000Y-69595667D02*
X197072333Y-69629000D01*
X197072333Y-69629000D02*
X196872333Y-69629000D01*
X196872333Y-69629000D02*
X196805666Y-69595667D01*
X196805666Y-69595667D02*
X196772333Y-69562334D01*
X196772333Y-69562334D02*
X196739000Y-69495667D01*
X196739000Y-69495667D02*
X196739000Y-69362334D01*
X196739000Y-69362334D02*
X196772333Y-69295667D01*
X197205666Y-68662334D02*
X196839000Y-68662334D01*
X196839000Y-68662334D02*
X196772333Y-68695667D01*
X196772333Y-68695667D02*
X196739000Y-68762334D01*
X196739000Y-68762334D02*
X196739000Y-68895667D01*
X196739000Y-68895667D02*
X196772333Y-68962334D01*
X197172333Y-68662334D02*
X197205666Y-68729001D01*
X197205666Y-68729001D02*
X197205666Y-68895667D01*
X197205666Y-68895667D02*
X197172333Y-68962334D01*
X197172333Y-68962334D02*
X197105666Y-68995667D01*
X197105666Y-68995667D02*
X197039000Y-68995667D01*
X197039000Y-68995667D02*
X196972333Y-68962334D01*
X196972333Y-68962334D02*
X196939000Y-68895667D01*
X196939000Y-68895667D02*
X196939000Y-68729001D01*
X196939000Y-68729001D02*
X196905666Y-68662334D01*
X196739000Y-68329001D02*
X197439000Y-68329001D01*
X196772333Y-68329001D02*
X196739000Y-68262334D01*
X196739000Y-68262334D02*
X196739000Y-68129001D01*
X196739000Y-68129001D02*
X196772333Y-68062334D01*
X196772333Y-68062334D02*
X196805666Y-68029001D01*
X196805666Y-68029001D02*
X196872333Y-67995668D01*
X196872333Y-67995668D02*
X197072333Y-67995668D01*
X197072333Y-67995668D02*
X197139000Y-68029001D01*
X197139000Y-68029001D02*
X197172333Y-68062334D01*
X197172333Y-68062334D02*
X197205666Y-68129001D01*
X197205666Y-68129001D02*
X197205666Y-68262334D01*
X197205666Y-68262334D02*
X197172333Y-68329001D01*
X196739000Y-67795668D02*
X196739000Y-67529001D01*
X196505666Y-67695668D02*
X197105666Y-67695668D01*
X197105666Y-67695668D02*
X197172333Y-67662335D01*
X197172333Y-67662335D02*
X197205666Y-67595668D01*
X197205666Y-67595668D02*
X197205666Y-67529001D01*
X197172333Y-67029001D02*
X197205666Y-67095668D01*
X197205666Y-67095668D02*
X197205666Y-67229001D01*
X197205666Y-67229001D02*
X197172333Y-67295668D01*
X197172333Y-67295668D02*
X197105666Y-67329001D01*
X197105666Y-67329001D02*
X196839000Y-67329001D01*
X196839000Y-67329001D02*
X196772333Y-67295668D01*
X196772333Y-67295668D02*
X196739000Y-67229001D01*
X196739000Y-67229001D02*
X196739000Y-67095668D01*
X196739000Y-67095668D02*
X196772333Y-67029001D01*
X196772333Y-67029001D02*
X196839000Y-66995668D01*
X196839000Y-66995668D02*
X196905666Y-66995668D01*
X196905666Y-66995668D02*
X196972333Y-67329001D01*
X197205666Y-66695668D02*
X196739000Y-66695668D01*
X196872333Y-66695668D02*
X196805666Y-66662335D01*
X196805666Y-66662335D02*
X196772333Y-66629001D01*
X196772333Y-66629001D02*
X196739000Y-66562335D01*
X196739000Y-66562335D02*
X196739000Y-66495668D01*
X197205666Y-65442335D02*
X196872333Y-65675668D01*
X197205666Y-65842335D02*
X196505666Y-65842335D01*
X196505666Y-65842335D02*
X196505666Y-65575668D01*
X196505666Y-65575668D02*
X196539000Y-65509002D01*
X196539000Y-65509002D02*
X196572333Y-65475668D01*
X196572333Y-65475668D02*
X196639000Y-65442335D01*
X196639000Y-65442335D02*
X196739000Y-65442335D01*
X196739000Y-65442335D02*
X196805666Y-65475668D01*
X196805666Y-65475668D02*
X196839000Y-65509002D01*
X196839000Y-65509002D02*
X196872333Y-65575668D01*
X196872333Y-65575668D02*
X196872333Y-65842335D01*
X197172333Y-64875668D02*
X197205666Y-64942335D01*
X197205666Y-64942335D02*
X197205666Y-65075668D01*
X197205666Y-65075668D02*
X197172333Y-65142335D01*
X197172333Y-65142335D02*
X197105666Y-65175668D01*
X197105666Y-65175668D02*
X196839000Y-65175668D01*
X196839000Y-65175668D02*
X196772333Y-65142335D01*
X196772333Y-65142335D02*
X196739000Y-65075668D01*
X196739000Y-65075668D02*
X196739000Y-64942335D01*
X196739000Y-64942335D02*
X196772333Y-64875668D01*
X196772333Y-64875668D02*
X196839000Y-64842335D01*
X196839000Y-64842335D02*
X196905666Y-64842335D01*
X196905666Y-64842335D02*
X196972333Y-65175668D01*
X196739000Y-64609002D02*
X197205666Y-64442335D01*
X197205666Y-64442335D02*
X196739000Y-64275668D01*
X196572333Y-64042335D02*
X196539000Y-64009002D01*
X196539000Y-64009002D02*
X196505666Y-63942335D01*
X196505666Y-63942335D02*
X196505666Y-63775669D01*
X196505666Y-63775669D02*
X196539000Y-63709002D01*
X196539000Y-63709002D02*
X196572333Y-63675669D01*
X196572333Y-63675669D02*
X196639000Y-63642335D01*
X196639000Y-63642335D02*
X196705666Y-63642335D01*
X196705666Y-63642335D02*
X196805666Y-63675669D01*
X196805666Y-63675669D02*
X197205666Y-64075669D01*
X197205666Y-64075669D02*
X197205666Y-63642335D01*
X192517666Y-93000666D02*
X192517666Y-93500666D01*
X192517666Y-93500666D02*
X192484333Y-93600666D01*
X192484333Y-93600666D02*
X192417666Y-93667333D01*
X192417666Y-93667333D02*
X192317666Y-93700666D01*
X192317666Y-93700666D02*
X192251000Y-93700666D01*
X193217666Y-93700666D02*
X192817666Y-93700666D01*
X193017666Y-93700666D02*
X193017666Y-93000666D01*
X193017666Y-93000666D02*
X192950999Y-93100666D01*
X192950999Y-93100666D02*
X192884333Y-93167333D01*
X192884333Y-93167333D02*
X192817666Y-93200666D01*
D11*
%TO.C,U1*%
X195858666Y-85790166D02*
X195858666Y-86356833D01*
X195858666Y-86356833D02*
X195892000Y-86423500D01*
X195892000Y-86423500D02*
X195925333Y-86456833D01*
X195925333Y-86456833D02*
X195992000Y-86490166D01*
X195992000Y-86490166D02*
X196125333Y-86490166D01*
X196125333Y-86490166D02*
X196192000Y-86456833D01*
X196192000Y-86456833D02*
X196225333Y-86423500D01*
X196225333Y-86423500D02*
X196258666Y-86356833D01*
X196258666Y-86356833D02*
X196258666Y-85790166D01*
X196958666Y-86490166D02*
X196558666Y-86490166D01*
X196758666Y-86490166D02*
X196758666Y-85790166D01*
X196758666Y-85790166D02*
X196691999Y-85890166D01*
X196691999Y-85890166D02*
X196625333Y-85956833D01*
X196625333Y-85956833D02*
X196558666Y-85990166D01*
D12*
%TO.C,J1*%
X188941000Y-65407000D02*
X188941000Y-93407000D01*
X188941000Y-65407000D02*
X191601000Y-65407000D01*
X188941000Y-93407000D02*
X191601000Y-93407000D01*
X190271000Y-62807000D02*
X191601000Y-62807000D01*
X191601000Y-62807000D02*
X191601000Y-64137000D01*
X191601000Y-65407000D02*
X191601000Y-93407000D01*
%TO.C,R2*%
X194070500Y-78819742D02*
X194070500Y-79294258D01*
X193025500Y-78819742D02*
X193025500Y-79294258D01*
%TO.C,R1*%
X194039258Y-82056500D02*
X193564742Y-82056500D01*
X194039258Y-81011500D02*
X193564742Y-81011500D01*
D13*
%TO.C,U1*%
X195823000Y-85565000D02*
X197823000Y-85565000D01*
X197823000Y-85565000D02*
X197823000Y-76765000D01*
X195823000Y-85110000D02*
X195823000Y-85565000D01*
X195823000Y-85110000D02*
X196423000Y-85110000D01*
X195823000Y-84240000D02*
X196423000Y-84240000D01*
X195823000Y-84240000D02*
X195823000Y-78085000D01*
X196423000Y-84240000D02*
X196423000Y-85110000D01*
X195823000Y-78085000D02*
X196423000Y-78085000D01*
X196423000Y-78085000D02*
X196423000Y-77585000D01*
X195823000Y-77585000D02*
X196423000Y-77585000D01*
X195823000Y-77585000D02*
X195823000Y-76765000D01*
X195823000Y-76765000D02*
X197823000Y-76765000D01*
%TD*%
M02*
